# xmcd CD database file
# Copyright (C) 1993-1998 Ti Kan
# 
# Track frame offsets:
#     183
#     12953
#     26480
#     42678
#     57510
#     73255
#     89833
#     103460
#     121993
#     135820
#     148120
#     161128
#     173175
#     188213
#     201025
#     211738
#     225705
#     237713
#     251040
#     262065
#     274033
#     285663
# 
# Disc length: 4002 seconds
# 
# Revision: 1
# Processed by: cddbd v1.4b41PL1 Copyright (c) Steve Scherf et al.
# Submitted via: DiscPlay 4.0.4
# 
DISCID=5d0fa016
DTITLE=Denise LaSalle - On The Loose - Trapped By A Thing Called Love
DYEAR=1900
DGENRE=
TTITLE0=A Man Size Job
TTITLE1=What It Takes To Get A Good Woman
TTITLE2=Harper Valley PTA
TTITLE3=What Am I Doing Wrong
TTITLE4=Breaking Up Somebody's Home
TTITLE5=There Ain't Enough Hate Around (To Make Me Turn Around)
TTITLE6=Your Man And Your Best Friend
TTITLE7=Lean On Me
TTITLE8=Making A Good Thing Better
TTITLE9=I'm Over You
TTITLE10=I'm Satisfied
TTITLE11=Trapped By A Thing Called Love
TTITLE12=Now Run And Tell That
TTITLE13=Heartbreaker Of The Year
TTITLE14=Goody Goody Getter
TTITLE15=Catch Me If You Can
TTITLE16=Hung Up Strung Out
TTITLE17=De Me Right
TTITLE18=The Deeper I Go
TTITLE19=You'll Loose A Good Thing
TTITLE20=Keep It Coming
TTITLE21=It's Too Late
EXTD=
EXTT0=
EXTT1=
EXTT2=
EXTT3=
EXTT4=
EXTT5=
EXTT6=
EXTT7=
EXTT8=
EXTT9=
EXTT10=
EXTT11=
EXTT12=
EXTT13=
EXTT14=
EXTT15=
EXTT16=
EXTT17=
EXTT18=
EXTT19=
EXTT20=
EXTT21=
PLAYORDER=
